<svg width="100" height="100" viewBox="0 0 100 100" fill="none" xmlns="http://www.w3.org/2000/svg">
<path d="M25 47.741C23.067 47.741 21.5 49.308 21.5 51.241C21.5 53.174 23.067 54.741 25 54.741L25 47.741ZM74 51.241L76.2068 53.9576C77.008 53.3067 77.4811 52.3354 77.4994 51.3033C77.5178 50.2712 77.0797 49.2836 76.3022 48.6047L74 51.241ZM51.9784 27.3637C50.5224 26.0923 48.3114 26.2418 47.04 27.6978C45.7685 29.1538 45.9181 31.3648 47.3741 32.6363L51.9784 27.3637ZM47.4695 68.2834C45.9691 69.5022 45.7409 71.7065 46.9596 73.2068C48.1784 74.7072 50.3827 74.9354 51.8831 73.7166L47.4695 68.2834ZM25 54.741L74 54.741V47.741L25 47.741L25 54.741ZM76.3022 48.6047L51.9784 27.3637L47.3741 32.6363L71.6978 53.8773L76.3022 48.6047ZM71.7932 48.5243L47.4695 68.2834L51.8831 73.7166L76.2068 53.9576L71.7932 48.5243Z" fill="url(#paint0_linear)"/>
<defs>
<linearGradient id="paint0_linear" x1="22.8849" y1="50.747" x2="74.3525" y2="50.747" gradientUnits="userSpaceOnUse">
<stop stop-color="#E0E0E0"/>
<stop offset="1" stop-color="white"/>
</linearGradient>
</defs>
</svg>
