<svg width="100" height="100" viewBox="0 0 100 100" fill="none" xmlns="http://www.w3.org/2000/svg">
<path d="M74 53.259C75.933 53.259 77.5 51.692 77.5 49.759C77.5 47.826 75.933 46.259 74 46.259V53.259ZM25 49.759L22.7932 47.0424C21.992 47.6933 21.5189 48.6646 21.5006 49.6967C21.4822 50.7288 21.9203 51.7164 22.6978 52.3953L25 49.759ZM47.0216 73.6363C48.4776 74.9077 50.6886 74.7582 51.96 73.3022C53.2315 71.8462 53.0819 69.6352 51.6259 68.3637L47.0216 73.6363ZM51.5305 32.7166C53.0309 31.4978 53.2591 29.2935 52.0404 27.7932C50.8216 26.2928 48.6173 26.0646 47.1169 27.2834L51.5305 32.7166ZM74 46.259L25 46.259V53.259L74 53.259V46.259ZM22.6978 52.3953L47.0216 73.6363L51.6259 68.3637L27.3022 47.1227L22.6978 52.3953ZM27.2068 52.4757L51.5305 32.7166L47.1169 27.2834L22.7932 47.0424L27.2068 52.4757Z" fill="url(#paint0_linear)"/>
<defs>
<linearGradient id="paint0_linear" x1="76.1151" y1="50.253" x2="24.6475" y2="50.253" gradientUnits="userSpaceOnUse">
<stop stop-color="#E0E0E0"/>
<stop offset="1" stop-color="white"/>
</linearGradient>
</defs>
</svg>
